<?xml version="1.0" encoding="utf-8"?>
<svg width="450px" height="150px" viewBox="0 0 450 150" version="1.1" xmlns:xlink="http://www.w3.org/1999/xlink" xmlns="http://www.w3.org/2000/svg">
  <defs>
    <rect width="450" height="150" id="artboard_1" />
    <clipPath id="clip_1">
      <use xlink:href="#artboard_1" clip-rule="evenodd" />
    </clipPath>
  </defs>
  <g id="logo" clip-path="url(#clip_1)">
    <use xlink:href="#artboard_1" stroke="none" fill-opacity="0" />
    <g id="Group">
      <path d="M0 4.54286L8.19642 0L51.0535 26.7857L51.0535 35.8714L15.465 58.1143L51.0535 80.3572L51.0535 89.4428L8.19642 116.229L0 111.686L0 4.54286ZM440.143 39.6574L449.058 33.7142L427.629 1.57129L418.714 1.57127L397.286 33.7141L397.955 40.4738L419.384 61.9024L437.707 80.2255L423.172 102.028L406.201 76.5713L397.286 82.5145L418.714 114.657L427.629 114.657L449.058 82.5145L448.388 75.7548L408.637 36.0032L423.172 14.2006L440.143 39.6574ZM181.366 1.78667L172.179 1.78667L140.036 55.3581L140.036 60.8706L172.179 114.442L181.366 114.442L213.509 60.8706L213.509 55.3581L181.366 1.78667ZM74.9999 111.695L75.1905 4.47158L64.4763 4.45253L64.2857 111.676L74.9999 111.695ZM117.829 12.2094L117.838 4.53636L128.553 4.54944L128.423 110.97L118.691 114.057L81.3214 61.2073L90.0696 55.0214L117.729 94.1377L117.829 12.2094ZM225 4.54289L235.714 4.54289L235.714 100.971L257.143 100.971L257.143 4.54289L267.857 4.54289L267.857 106.329L262.5 111.686L230.357 111.686L225 106.329L225 4.54289ZM374.991 12.2159L375 4.54289L385.714 4.55597L385.584 110.977L375.853 114.063L338.483 61.2138L347.231 55.0279L374.891 94.1442L374.991 12.2159ZM38.1064 31.3286L10.7143 48.4487L10.7143 14.2085L38.1064 31.3286ZM176.772 14.9553L150.877 58.1143L176.772 101.273L202.668 58.1143L176.772 14.9553ZM10.7143 67.7799L10.7143 102.02L38.1064 84.9L10.7143 67.7799Z" transform="translate(0 16.88568)" id="Vector" fill="#0E6476" fill-rule="evenodd" stroke="none" />
      <path d="M450 0L0 0L0 10.7143L450 10.7143L450 0ZM292.424 69.6429L305.357 56.7096L318.29 69.6429L305.357 82.5762L292.424 69.6429ZM450 150L450 139.286L0 139.286L0 150L450 150Z" id="Vector" fill="#0E353D" fill-rule="evenodd" stroke="none" />
    </g>
  </g>
</svg>